<svg width="412" height="526" viewBox="0 0 412 526" fill="none" xmlns="http://www.w3.org/2000/svg">
<path d="M150 73C150 104.48 124.48 130 93 130C61.5198 130 36 104.48 36 73C36 41.5198 61.5198 16 93 16C124.48 16 150 41.5198 150 73Z" fill="#5763BF"/>
<path d="M90.4743 330.34C91.5315 334.376 92.2705 338.528 92.6652 342.771L91.1837 342.88L91.2938 344.376C91.4305 346.234 91.5 348.109 91.5 350C91.5 351.891 91.4305 353.766 91.2938 355.624L91.1837 357.12L92.6652 357.229C92.2705 361.472 91.5315 365.624 90.4743 369.66L89.0449 369.256L88.6368 370.699C87.6121 374.324 86.3244 377.851 84.7935 381.261L84.1792 382.63L85.5347 383.238C83.7364 387.05 81.6382 390.712 79.2679 394.2L78.0539 393.342L77.1883 394.567C75.0283 397.624 72.652 400.539 70.0792 403.293L69.0553 404.389L70.1419 405.404C67.2283 408.416 64.0808 411.23 60.7258 413.82L59.8369 412.627L58.6342 413.524C55.6397 415.756 52.4836 417.811 49.1847 419.67L47.878 420.407L48.6086 421.703C44.938 423.693 41.1009 425.448 37.1214 426.945L36.62 425.544L35.2078 426.049C31.7005 427.304 28.0843 428.358 24.3758 429.193L22.9125 429.523L23.2396 430.975C19.1687 431.824 14.9928 432.417 10.7327 432.733L10.6455 431.247L9.14812 431.335C7.2808 431.444 5.3975 431.5 3.5 431.5C1.60249 431.5 -0.280815 431.444 -2.14814 431.335L-3.64556 431.247L-3.73272 432.733C-7.99277 432.417 -12.1687 431.824 -16.2396 430.975L-15.9125 429.523L-17.3759 429.193C-21.0843 428.358 -24.7005 427.304 -28.2078 426.049L-29.62 425.544L-30.1214 426.945C-34.1009 425.448 -37.938 423.693 -41.6085 421.703L-40.878 420.407L-42.1847 419.67C-45.4836 417.811 -48.6397 415.756 -51.6342 413.524L-52.8369 412.627L-53.7258 413.82C-57.0808 411.23 -60.2283 408.416 -63.1419 405.404L-62.0553 404.389L-63.0792 403.293C-65.652 400.539 -68.0283 397.624 -70.1883 394.567L-71.0539 393.342L-72.2679 394.2C-74.6382 390.712 -76.7364 387.05 -78.5347 383.238L-77.1792 382.63L-77.7935 381.261C-79.3244 377.851 -80.6121 374.324 -81.6368 370.699L-82.0449 369.256L-83.4743 369.66C-84.5315 365.624 -85.2705 361.472 -85.6652 357.229L-84.1837 357.12L-84.2938 355.624C-84.4305 353.766 -84.5 351.891 -84.5 350C-84.5 348.109 -84.4305 346.234 -84.2938 344.376L-84.1837 342.88L-85.6652 342.771C-85.2705 338.528 -84.5315 334.376 -83.4743 330.34L-82.0449 330.744L-81.6368 329.301C-80.6121 325.676 -79.3244 322.149 -77.7935 318.739L-77.1792 317.37L-78.5347 316.762C-76.7364 312.95 -74.6382 309.288 -72.2679 305.8L-71.0539 306.658L-70.1883 305.433C-68.0283 302.376 -65.652 299.461 -63.0792 296.707L-62.0553 295.611L-63.1419 294.596C-60.2283 291.584 -57.0808 288.77 -53.7258 286.18L-52.8369 287.373L-51.6342 286.476C-48.6397 284.244 -45.4836 282.189 -42.1847 280.33L-40.878 279.593L-41.6086 278.297C-37.938 276.307 -34.1009 274.552 -30.1214 273.055L-29.62 274.456L-28.2078 273.951C-24.7005 272.696 -21.0843 271.642 -17.3758 270.807L-15.9125 270.477L-16.2396 269.025C-12.1687 268.176 -7.99275 267.583 -3.7327 267.267L-3.64554 268.753L-2.14812 268.665C-0.2808 268.556 1.6025 268.5 3.5 268.5C5.39751 268.5 7.28082 268.556 9.14814 268.665L10.6456 268.753L10.7327 267.267C14.9928 267.583 19.1687 268.176 23.2397 269.025L22.9125 270.477L24.3759 270.807C28.0843 271.642 31.7005 272.696 35.2078 273.951L36.62 274.456L37.1214 273.055C41.1009 274.552 44.938 276.307 48.6086 278.297L47.878 279.593L49.1847 280.33C52.4836 282.189 55.6397 284.244 58.6342 286.476L59.8369 287.373L60.7258 286.18C64.0808 288.77 67.2283 291.584 70.1419 294.596L69.0553 295.611L70.0792 296.707C72.652 299.461 75.0283 302.376 77.1883 305.433L78.0539 306.658L79.2679 305.8C81.6382 309.288 83.7364 312.95 85.5347 316.762L84.1792 317.37L84.7935 318.739C86.3244 322.149 87.6121 325.676 88.6368 329.301L89.0449 330.744L90.4743 330.34Z" fill="white" stroke="#5763BF" stroke-width="3" stroke-linecap="square" stroke-dasharray="11 15"/>
<path d="M379.5 84C379.5 128.903 341.331 165.5 294 165.5C246.669 165.5 208.5 128.903 208.5 84C208.5 39.0971 246.669 2.5 294 2.5C341.331 2.5 379.5 39.0971 379.5 84Z" fill="white" stroke="#5763BF" stroke-width="5"/>
<path d="M451.167 461.614C452.734 465.107 453.855 468.816 454.466 472.679L453.003 472.859L453.186 474.347C453.393 476.038 453.5 477.757 453.5 479.5C453.5 481.243 453.393 482.962 453.186 484.653L453.003 486.141L454.466 486.321C453.855 490.184 452.734 493.893 451.167 497.386L449.843 496.738L449.183 498.085C447.67 501.177 445.789 504.085 443.591 506.759L442.639 507.918L443.779 508.855C441.256 511.735 438.369 514.328 435.183 516.575L434.368 515.342L433.117 516.17C430.267 518.055 427.186 519.662 423.922 520.946L422.526 521.496L423.068 522.871C419.502 524.157 415.738 525.073 411.83 525.57L411.685 524.098L410.192 524.245C408.486 524.414 406.754 524.5 405 524.5C403.246 524.5 401.514 524.414 399.808 524.245L398.315 524.098L398.17 525.57C394.262 525.073 390.498 524.157 386.932 522.871L387.474 521.496L386.078 520.946C382.814 519.662 379.733 518.055 376.883 516.17L375.632 515.342L374.817 516.575C371.631 514.328 368.744 511.735 366.221 508.855L367.361 507.918L366.409 506.759C364.211 504.085 362.33 501.177 360.817 498.085L360.157 496.738L358.833 497.386C357.266 493.893 356.145 490.184 355.534 486.321L356.997 486.141L356.814 484.653C356.607 482.962 356.5 481.243 356.5 479.5C356.5 477.757 356.607 476.038 356.814 474.347L356.997 472.859L355.534 472.679C356.145 468.816 357.266 465.107 358.833 461.614L360.157 462.262L360.817 460.915C362.33 457.823 364.211 454.915 366.409 452.241L367.361 451.082L366.221 450.145C368.744 447.265 371.631 444.672 374.817 442.425L375.632 443.658L376.883 442.83C379.733 440.945 382.814 439.338 386.078 438.054L387.474 437.504L386.932 436.129C390.498 434.843 394.262 433.927 398.17 433.43L398.315 434.902L399.808 434.755C401.514 434.586 403.246 434.5 405 434.5C406.754 434.5 408.486 434.586 410.192 434.755L411.685 434.902L411.83 433.43C415.738 433.927 419.502 434.843 423.068 436.129L422.526 437.504L423.922 438.054C427.186 439.338 430.267 440.945 433.117 442.83L434.368 443.658L435.183 442.425C438.369 444.672 441.256 447.265 443.779 450.145L442.639 451.082L443.591 452.241C445.789 454.915 447.67 457.823 449.183 460.915L449.843 462.262L451.167 461.614Z" fill="white" stroke="#5763BF" stroke-width="3" stroke-linecap="square" stroke-dasharray="11 15"/>
<g filter="url(#filter0_d_223_52)">
<ellipse cx="94.5" cy="490" rx="22.5" ry="23" fill="#5763BF"/>
<path d="M103.194 468.78C108.683 471.132 113.066 475.645 115.326 481.278L112.077 482.581C112.993 484.862 113.5 487.365 113.5 490C113.5 492.635 112.993 495.138 112.077 497.419L115.326 498.722C113.066 504.355 108.683 508.868 103.194 511.22L101.815 508.003C99.5669 508.967 97.098 509.5 94.5 509.5C91.902 509.5 89.4331 508.967 87.1848 508.003L85.8059 511.22C80.3174 508.868 75.9343 504.355 73.6743 498.722L76.9226 497.419C76.0073 495.138 75.5 492.635 75.5 490C75.5 487.365 76.0073 484.862 76.9226 482.581L73.6743 481.278C75.9343 475.645 80.3174 471.132 85.8059 468.78L87.1848 471.997C89.4331 471.033 91.902 470.5 94.5 470.5C97.098 470.5 99.5669 471.033 101.815 471.997L103.194 468.78Z" stroke="#5763BF" stroke-width="7" stroke-dasharray="20 20"/>
</g>
<g filter="url(#filter1_d_223_52)">
<ellipse cx="253" cy="377" rx="42" ry="40" fill="#5763BF"/>
<path d="M287.657 354.398C290.778 358.73 293.026 363.675 294.161 369.006L290.738 369.735C291.237 372.08 291.5 374.509 291.5 377C291.5 379.491 291.237 381.92 290.738 384.265L294.161 384.994C293.026 390.325 290.778 395.27 287.657 399.602L284.817 397.556C281.974 401.503 278.329 404.902 274.097 407.536L275.946 410.508C271.484 413.285 266.433 415.276 261.01 416.273L260.377 412.831C257.992 413.27 255.526 413.5 253 413.5C250.474 413.5 248.008 413.27 245.623 412.831L244.99 416.273C239.567 415.276 234.516 413.285 230.054 410.508L231.903 407.536C227.671 404.902 224.026 401.503 221.183 397.556L218.343 399.602C215.222 395.27 212.974 390.325 211.839 384.994L215.262 384.265C214.763 381.92 214.5 379.491 214.5 377C214.5 374.509 214.763 372.08 215.262 369.735L211.839 369.006C212.974 363.675 215.222 358.73 218.343 354.398L221.183 356.444C224.026 352.497 227.671 349.098 231.903 346.464L230.054 343.492C234.516 340.715 239.567 338.724 244.99 337.727L245.623 341.169C248.008 340.73 250.474 340.5 253 340.5C255.526 340.5 257.992 340.73 260.377 341.169L261.01 337.727C266.433 338.724 271.484 340.715 275.946 343.492L274.097 346.464C278.329 349.098 281.974 352.497 284.817 356.444L287.657 354.398Z" stroke="#5763BF" stroke-width="7" stroke-dasharray="20 20"/>
</g>
<defs>
<filter id="filter0_d_223_52" x="68" y="467" width="53" height="54" filterUnits="userSpaceOnUse" color-interpolation-filters="sRGB">
<feFlood flood-opacity="0" result="BackgroundImageFix"/>
<feColorMatrix in="SourceAlpha" type="matrix" values="0 0 0 0 0 0 0 0 0 0 0 0 0 0 0 0 0 0 127 0" result="hardAlpha"/>
<feOffset dy="4"/>
<feGaussianBlur stdDeviation="2"/>
<feComposite in2="hardAlpha" operator="out"/>
<feColorMatrix type="matrix" values="0 0 0 0 0 0 0 0 0 0 0 0 0 0 0 0 0 0 0.25 0"/>
<feBlend mode="normal" in2="BackgroundImageFix" result="effect1_dropShadow_223_52"/>
<feBlend mode="normal" in="SourceGraphic" in2="effect1_dropShadow_223_52" result="shape"/>
</filter>
<filter id="filter1_d_223_52" x="207" y="337" width="92" height="88" filterUnits="userSpaceOnUse" color-interpolation-filters="sRGB">
<feFlood flood-opacity="0" result="BackgroundImageFix"/>
<feColorMatrix in="SourceAlpha" type="matrix" values="0 0 0 0 0 0 0 0 0 0 0 0 0 0 0 0 0 0 127 0" result="hardAlpha"/>
<feOffset dy="4"/>
<feGaussianBlur stdDeviation="2"/>
<feComposite in2="hardAlpha" operator="out"/>
<feColorMatrix type="matrix" values="0 0 0 0 0 0 0 0 0 0 0 0 0 0 0 0 0 0 0.25 0"/>
<feBlend mode="normal" in2="BackgroundImageFix" result="effect1_dropShadow_223_52"/>
<feBlend mode="normal" in="SourceGraphic" in2="effect1_dropShadow_223_52" result="shape"/>
</filter>
</defs>
</svg>
