<svg width="16" height="16" viewBox="0 0 16 16" fill="none" xmlns="http://www.w3.org/2000/svg">
<path d="M0.977539 8.00684C0.977539 8.30566 1.08268 8.56022 1.29297 8.77051C1.50326 8.97526 1.75505 9.07764 2.04834 9.07764H6.9375V13.9668C6.9375 14.2546 7.03988 14.5036 7.24463 14.7139C7.44938 14.9242 7.70117 15.0293 8 15.0293C8.29329 15.0293 8.54508 14.9242 8.75537 14.7139C8.96566 14.5036 9.0708 14.2546 9.0708 13.9668V9.07764H13.96C14.2477 9.07764 14.4967 8.97526 14.707 8.77051C14.9173 8.56022 15.0225 8.30566 15.0225 8.00684C15.0225 7.71354 14.9173 7.46175 14.707 7.25146C14.4967 7.04118 14.2477 6.93604 13.96 6.93604H9.0708V2.05518C9.0708 1.76188 8.96566 1.51009 8.75537 1.2998C8.54508 1.08952 8.29329 0.984375 8 0.984375C7.70117 0.984375 7.44938 1.08952 7.24463 1.2998C7.03988 1.51009 6.9375 1.76188 6.9375 2.05518V6.93604H2.04834C1.75505 6.93604 1.50326 7.04118 1.29297 7.25146C1.08268 7.46175 0.977539 7.71354 0.977539 8.00684Z" fill="#8C92D2"/>
</svg>
