<svg width="32" height="35" viewBox="0 0 32 35" fill="none" xmlns="http://www.w3.org/2000/svg">
<path d="M24 32.0834C22.8889 32.0834 21.9444 31.6581 21.1667 30.8074C20.3889 29.9567 20 28.9237 20 27.7084C20 27.5383 20.0111 27.3621 20.0333 27.1798C20.0556 26.9975 20.0889 26.8334 20.1333 26.6876L10.7333 20.7084C10.3556 21.073 9.93333 21.3586 9.46667 21.5652C9 21.7718 8.51111 21.8751 8 21.8751C6.88889 21.8751 5.94444 21.4497 5.16667 20.599C4.38889 19.7483 4 18.7154 4 17.5001C4 16.2848 4.38889 15.2518 5.16667 14.4011C5.94444 13.5504 6.88889 13.1251 8 13.1251C8.51111 13.1251 9 13.2284 9.46667 13.435C9.93333 13.6416 10.3556 13.9272 10.7333 14.2917L20.1333 8.31258C20.0889 8.16675 20.0556 8.00269 20.0333 7.82039C20.0111 7.6381 20 7.46189 20 7.29175C20 6.07647 20.3889 5.04348 21.1667 4.19279C21.9444 3.3421 22.8889 2.91675 24 2.91675C25.1111 2.91675 26.0556 3.3421 26.8333 4.19279C27.6111 5.04348 28 6.07647 28 7.29175C28 8.50703 27.6111 9.54001 26.8333 10.3907C26.0556 11.2414 25.1111 11.6667 24 11.6667C23.4889 11.6667 23 11.5634 22.5333 11.3569C22.0667 11.1503 21.6444 10.8647 21.2667 10.5001L11.8667 16.4792C11.9111 16.6251 11.9444 16.7891 11.9667 16.9714C11.9889 17.1537 12 17.3299 12 17.5001C12 17.6702 11.9889 17.8464 11.9667 18.0287C11.9444 18.211 11.9111 18.3751 11.8667 18.5209L21.2667 24.5001C21.6444 24.1355 22.0667 23.8499 22.5333 23.6433C23 23.4367 23.4889 23.3334 24 23.3334C25.1111 23.3334 26.0556 23.7588 26.8333 24.6095C27.6111 25.4601 28 26.4931 28 27.7084C28 28.9237 27.6111 29.9567 26.8333 30.8074C26.0556 31.6581 25.1111 32.0834 24 32.0834ZM24 8.75008C24.3778 8.75008 24.6944 8.61032 24.95 8.33081C25.2056 8.0513 25.3333 7.70494 25.3333 7.29175C25.3333 6.87855 25.2056 6.5322 24.95 6.25269C24.6944 5.97317 24.3778 5.83341 24 5.83341C23.6222 5.83341 23.3056 5.97317 23.05 6.25269C22.7944 6.5322 22.6667 6.87855 22.6667 7.29175C22.6667 7.70494 22.7944 8.0513 23.05 8.33081C23.3056 8.61032 23.6222 8.75008 24 8.75008ZM8 18.9584C8.37778 18.9584 8.69444 18.8187 8.95 18.5391C9.20556 18.2596 9.33333 17.9133 9.33333 17.5001C9.33333 17.0869 9.20556 16.7405 8.95 16.461C8.69444 16.1815 8.37778 16.0417 8 16.0417C7.62222 16.0417 7.30556 16.1815 7.05 16.461C6.79444 16.7405 6.66667 17.0869 6.66667 17.5001C6.66667 17.9133 6.79444 18.2596 7.05 18.5391C7.30556 18.8187 7.62222 18.9584 8 18.9584ZM24 29.1667C24.3778 29.1667 24.6944 29.027 24.95 28.7475C25.2056 28.468 25.3333 28.1216 25.3333 27.7084C25.3333 27.2952 25.2056 26.9489 24.95 26.6694C24.6944 26.3898 24.3778 26.2501 24 26.2501C23.6222 26.2501 23.3056 26.3898 23.05 26.6694C22.7944 26.9489 22.6667 27.2952 22.6667 27.7084C22.6667 28.1216 22.7944 28.468 23.05 28.7475C23.3056 29.027 23.6222 29.1667 24 29.1667Z" fill="#1D1B20"/>
</svg>
